<svg xmlns="http://www.w3.org/2000/svg" xmlns:xlink="http://www.w3.org/1999/xlink" width="180" zoomAndPan="magnify" viewBox="0 0 375 374.999991" height="500" preserveAspectRatio="xMidYMid meet" version="1.0"><defs><g/><clipPath id="a411b2e8b4"><path d="M 187.5 123.078125 L 330.824219 123.078125 L 330.824219 201.984375 L 187.5 201.984375 Z M 187.5 123.078125 " clip-rule="nonzero"/></clipPath><clipPath id="dddbce5317"><path d="M 194.25 123.078125 L 323.878906 123.078125 C 325.667969 123.078125 327.386719 123.789062 328.652344 125.054688 C 329.917969 126.320312 330.628906 128.039062 330.628906 129.828125 L 330.628906 195.234375 C 330.628906 198.960938 327.609375 201.984375 323.878906 201.984375 L 194.25 201.984375 C 190.523438 201.984375 187.5 198.960938 187.5 195.234375 L 187.5 129.828125 C 187.5 126.101562 190.523438 123.078125 194.25 123.078125 Z M 194.25 123.078125 " clip-rule="nonzero"/></clipPath></defs><g clip-path="url(#a411b2e8b4)"><g clip-path="url(#dddbce5317)"><path fill="#a10be8" d="M 187.5 123.078125 L 330.515625 123.078125 L 330.515625 201.980469 L 187.5 201.980469 Z M 187.5 123.078125 " fill-opacity="1" fill-rule="nonzero"/></g></g><g fill="#ffffff" fill-opacity="1"><g transform="translate(37.500002, 194.124241)"><g><path d="M 28.3125 -55.75 L 28.3125 -15.75 C 28.3125 -10.289062 26.8125 -6.128906 23.8125 -3.265625 C 20.820312 -0.410156 16.535156 1.015625 10.953125 1.015625 C 9.460938 1.015625 7.992188 0.832031 6.546875 0.46875 C 5.109375 0.113281 3.894531 -0.320312 2.90625 -0.84375 C 1.914062 -1.363281 1.023438 -1.894531 0.234375 -2.4375 C -0.554688 -2.976562 -1.128906 -3.425781 -1.484375 -3.78125 L -2.09375 -4.328125 L 1.953125 -14.9375 C 4.617188 -12.414062 7.03125 -11.15625 9.1875 -11.15625 C 11.125 -11.15625 12.675781 -11.796875 13.84375 -13.078125 C 15.019531 -14.359375 15.609375 -16.328125 15.609375 -18.984375 L 15.609375 -55.75 Z M 28.3125 -55.75 "/></g></g></g><g fill="#ffffff" fill-opacity="1"><g transform="translate(65.811709, 194.124241)"><g><path d="M 7.328125 -4.125 C 3.472656 -7.550781 1.546875 -11.941406 1.546875 -17.296875 C 1.546875 -22.660156 3.550781 -27.066406 7.5625 -30.515625 C 11.570312 -33.960938 16.53125 -35.6875 22.4375 -35.6875 C 28.25 -35.6875 33.144531 -33.953125 37.125 -30.484375 C 41.113281 -27.015625 43.109375 -22.617188 43.109375 -17.296875 C 43.109375 -11.984375 41.160156 -7.601562 37.265625 -4.15625 C 33.367188 -0.707031 28.425781 1.015625 22.4375 1.015625 C 16.21875 1.015625 11.179688 -0.695312 7.328125 -4.125 Z M 16.59375 -23.171875 C 15.039062 -21.640625 14.265625 -19.679688 14.265625 -17.296875 C 14.265625 -14.910156 15.003906 -12.960938 16.484375 -11.453125 C 17.972656 -9.941406 19.9375 -9.1875 22.375 -9.1875 C 24.707031 -9.1875 26.628906 -9.953125 28.140625 -11.484375 C 29.648438 -13.015625 30.40625 -14.953125 30.40625 -17.296875 C 30.40625 -19.679688 29.628906 -21.640625 28.078125 -23.171875 C 26.523438 -24.710938 24.625 -25.484375 22.375 -25.484375 C 20.070312 -25.484375 18.144531 -24.710938 16.59375 -23.171875 Z M 16.59375 -23.171875 "/></g></g></g><g fill="#ffffff" fill-opacity="1"><g transform="translate(107.096929, 194.124241)"><g><path d="M 39.734375 -30.34375 C 42.972656 -26.78125 44.59375 -22.429688 44.59375 -17.296875 C 44.59375 -12.160156 42.972656 -7.820312 39.734375 -4.28125 C 36.492188 -0.75 32.375 1.015625 27.375 1.015625 C 22.769531 1.015625 18.984375 -0.628906 16.015625 -3.921875 L 15.875 -3.921875 L 15.875 0 L 4.046875 0 L 4.046875 -58.109375 L 16.015625 -58.109375 L 16.015625 -31.359375 C 18.984375 -34.242188 22.769531 -35.6875 27.375 -35.6875 C 32.375 -35.6875 36.492188 -33.90625 39.734375 -30.34375 Z M 29.65625 -11.453125 C 31.144531 -12.960938 31.890625 -14.910156 31.890625 -17.296875 C 31.890625 -19.679688 31.113281 -21.640625 29.5625 -23.171875 C 28.007812 -24.710938 26.082031 -25.484375 23.78125 -25.484375 C 21.53125 -25.484375 19.628906 -24.710938 18.078125 -23.171875 C 16.523438 -21.640625 15.75 -19.679688 15.75 -17.296875 C 15.75 -14.953125 16.5 -13.015625 18 -11.484375 C 19.507812 -9.953125 21.4375 -9.1875 23.78125 -9.1875 C 26.21875 -9.1875 28.175781 -9.941406 29.65625 -11.453125 Z M 29.65625 -11.453125 "/></g></g></g><g fill="#ffffff" fill-opacity="1"><g transform="translate(149.868701, 194.124241)"><g><path d="M 19.125 -35.6875 C 21.101562 -35.6875 23.0625 -35.457031 25 -35 C 26.9375 -34.550781 28.378906 -34.101562 29.328125 -33.65625 L 30.75 -32.984375 L 26.828125 -25.140625 C 24.128906 -26.578125 21.5625 -27.296875 19.125 -27.296875 C 17.769531 -27.296875 16.8125 -27.148438 16.25 -26.859375 C 15.6875 -26.566406 15.40625 -26.015625 15.40625 -25.203125 C 15.40625 -25.023438 15.425781 -24.84375 15.46875 -24.65625 C 15.519531 -24.476562 15.613281 -24.3125 15.75 -24.15625 C 15.882812 -24 16.003906 -23.863281 16.109375 -23.75 C 16.222656 -23.632812 16.414062 -23.507812 16.6875 -23.375 C 16.957031 -23.238281 17.171875 -23.132812 17.328125 -23.0625 C 17.484375 -23 17.742188 -22.898438 18.109375 -22.765625 C 18.472656 -22.640625 18.742188 -22.539062 18.921875 -22.46875 C 19.097656 -22.40625 19.398438 -22.304688 19.828125 -22.171875 C 20.253906 -22.035156 20.582031 -21.941406 20.8125 -21.890625 C 22.207031 -21.484375 23.421875 -21.03125 24.453125 -20.53125 C 25.492188 -20.039062 26.585938 -19.367188 27.734375 -18.515625 C 28.890625 -17.660156 29.78125 -16.578125 30.40625 -15.265625 C 31.039062 -13.960938 31.359375 -12.476562 31.359375 -10.8125 C 31.359375 -2.925781 25.882812 1.015625 14.9375 1.015625 C 12.457031 1.015625 10.101562 0.632812 7.875 -0.125 C 5.644531 -0.894531 4.035156 -1.664062 3.046875 -2.4375 L 1.546875 -3.65625 L 6.421875 -11.828125 C 6.773438 -11.515625 7.242188 -11.140625 7.828125 -10.703125 C 8.421875 -10.273438 9.484375 -9.691406 11.015625 -8.953125 C 12.546875 -8.210938 13.875 -7.84375 15 -7.84375 C 17.476562 -7.84375 18.71875 -8.675781 18.71875 -10.34375 C 18.71875 -11.101562 18.398438 -11.695312 17.765625 -12.125 C 17.140625 -12.550781 16.070312 -13.035156 14.5625 -13.578125 C 13.050781 -14.117188 11.867188 -14.613281 11.015625 -15.0625 C 8.847656 -16.195312 7.132812 -17.472656 5.875 -18.890625 C 4.613281 -20.304688 3.984375 -22.1875 3.984375 -24.53125 C 3.984375 -28.039062 5.34375 -30.773438 8.0625 -32.734375 C 10.789062 -34.703125 14.476562 -35.6875 19.125 -35.6875 Z M 19.125 -35.6875 "/></g></g></g><g fill="#000000" fill-opacity="1"><g transform="translate(179.742171, 194.124241)"><g/></g></g><g fill="#000000" fill-opacity="1"><g transform="translate(194.81009, 194.124241)"><g><path d="M 4.046875 0 L 4.046875 -58.109375 L 16.015625 -58.109375 L 16.015625 -31.015625 L 16.15625 -31.015625 C 19.257812 -34.128906 22.566406 -35.6875 26.078125 -35.6875 C 27.796875 -35.6875 29.5 -35.457031 31.1875 -35 C 32.875 -34.550781 34.492188 -33.851562 36.046875 -32.90625 C 37.609375 -31.957031 38.875 -30.613281 39.84375 -28.875 C 40.8125 -27.144531 41.296875 -25.132812 41.296875 -22.84375 L 41.296875 0 L 29.328125 0 L 29.328125 -19.59375 C 29.328125 -21.394531 28.75 -22.972656 27.59375 -24.328125 C 26.445312 -25.679688 24.953125 -26.359375 23.109375 -26.359375 C 21.304688 -26.359375 19.671875 -25.660156 18.203125 -24.265625 C 16.742188 -22.867188 16.015625 -21.3125 16.015625 -19.59375 L 16.015625 0 Z M 4.046875 0 "/></g></g></g><g fill="#000000" fill-opacity="1"><g transform="translate(236.09531, 194.124241)"><g><path d="M 15.34375 -34.671875 L 15.34375 -18.171875 C 15.34375 -14.753906 15.859375 -12.320312 16.890625 -10.875 C 17.929688 -9.4375 19.6875 -8.71875 22.15625 -8.71875 C 24.632812 -8.71875 26.390625 -9.4375 27.421875 -10.875 C 28.460938 -12.320312 28.984375 -14.753906 28.984375 -18.171875 L 28.984375 -34.671875 L 40.953125 -34.671875 L 40.953125 -15.265625 C 40.953125 -9.503906 39.453125 -5.347656 36.453125 -2.796875 C 33.460938 -0.253906 28.695312 1.015625 22.15625 1.015625 C 15.625 1.015625 10.859375 -0.253906 7.859375 -2.796875 C 4.867188 -5.347656 3.375 -9.503906 3.375 -15.265625 L 3.375 -34.671875 Z M 15.34375 -34.671875 "/></g></g></g><g fill="#000000" fill-opacity="1"><g transform="translate(277.042677, 194.124241)"><g><path d="M 39.734375 -30.34375 C 42.972656 -26.78125 44.59375 -22.429688 44.59375 -17.296875 C 44.59375 -12.160156 42.972656 -7.820312 39.734375 -4.28125 C 36.492188 -0.75 32.375 1.015625 27.375 1.015625 C 22.769531 1.015625 18.984375 -0.628906 16.015625 -3.921875 L 15.875 -3.921875 L 15.875 0 L 4.046875 0 L 4.046875 -58.109375 L 16.015625 -58.109375 L 16.015625 -31.359375 C 18.984375 -34.242188 22.769531 -35.6875 27.375 -35.6875 C 32.375 -35.6875 36.492188 -33.90625 39.734375 -30.34375 Z M 29.65625 -11.453125 C 31.144531 -12.960938 31.890625 -14.910156 31.890625 -17.296875 C 31.890625 -19.679688 31.113281 -21.640625 29.5625 -23.171875 C 28.007812 -24.710938 26.082031 -25.484375 23.78125 -25.484375 C 21.53125 -25.484375 19.628906 -24.710938 18.078125 -23.171875 C 16.523438 -21.640625 15.75 -19.679688 15.75 -17.296875 C 15.75 -14.953125 16.5 -13.015625 18 -11.484375 C 19.507812 -9.953125 21.4375 -9.1875 23.78125 -9.1875 C 26.21875 -9.1875 28.175781 -9.941406 29.65625 -11.453125 Z M 29.65625 -11.453125 "/></g></g></g></svg>